# xmcd
#
# Track frame offsets: 
#        150
#        18946
#        37798
#        57439
#        80194
#        98768
#        117943
#        140345
#        159171
#        176761
#        193986
#        211994
#        230539
#        248337
#        265243
#
# Disc length: 3768 seconds
#
# Revision: 0
# Processed by: cddbd v1.5.2PL0 Copyright (c) Steve Scherf et al.
# Submitted via: ExactAudioCopy v1.0b3
#
DISCID=c40eb60f
DTITLE=Лили Иванова - Time For Sax
DYEAR=1999
DGENRE=Pop
TTITLE0=Дансингът на самотата
TTITLE1=Знаеш ли...?
TTITLE2=Само тази нощ
TTITLE3=Сънувах те
TTITLE4=Равносметка
TTITLE5=Такава ще остана
TTITLE6=Камино
TTITLE7=Сълза
TTITLE8=Суета
TTITLE9=Две хубави очи
TTITLE10=Животът
TTITLE11=Хазарт
TTITLE12=Скитница
TTITLE13=Майка ми
TTITLE14=Осъдени души
EXTD=
EXTT0=
EXTT1=
EXTT2=
EXTT3=
EXTT4=
EXTT5=
EXTT6=
EXTT7=
EXTT8=
EXTT9=
EXTT10=
EXTT11=
EXTT12=
EXTT13=
EXTT14=
PLAYORDER=
